<svg width="235" height="43" viewBox="0 0 235 43" fill="none" xmlns="http://www.w3.org/2000/svg">
<g clip-path="url(#clip0_1192_19686)">
<path d="M20.8673 43C32.6664 43 42.2309 33.3745 42.2309 21.5V6.45C42.2309 4.73935 41.5557 3.09877 40.3538 1.88916C39.1518 0.679552 37.5216 0 35.8218 0L21.9355 0V9.43205C21.9355 11.5842 22.0658 13.8138 23.1874 15.6456C23.9903 16.9584 25.0645 18.082 26.3369 18.9402C27.6094 19.7984 29.0503 20.3712 30.5621 20.6196L30.9712 20.6862C31.1399 20.7442 31.2863 20.8539 31.39 20.9998C31.4936 21.1457 31.5494 21.3206 31.5494 21.5C31.5494 21.6794 31.4936 21.8543 31.39 22.0002C31.2863 22.1461 31.1399 22.2558 30.9712 22.3138L30.5621 22.3804C28.3533 22.7436 26.3136 23.7957 24.731 25.3884C23.1485 26.9811 22.103 29.0338 21.7421 31.2567L21.6759 31.6684C21.6183 31.8382 21.5093 31.9855 21.3643 32.0898C21.2193 32.1942 21.0455 32.2503 20.8673 32.2503C20.6891 32.2503 20.5153 32.1942 20.3703 32.0898C20.2253 31.9855 20.1163 31.8382 20.0587 31.6684L19.9925 31.2567C19.7456 29.7353 19.1764 28.2851 18.3237 27.0046C17.4709 25.724 16.3544 24.643 15.05 23.8349C13.2298 22.7062 11.0144 22.575 8.87589 22.575H-0.470703C0.087956 33.9496 9.42707 43 20.8673 43Z" fill="#1F9874"/>
<path d="M-0.496094 20.425H8.87613C11.0146 20.425 13.23 20.2938 15.0502 19.1651C16.4731 18.2828 17.6708 17.0775 18.5475 15.6455C19.669 13.8137 19.7994 11.5842 19.7994 9.43205V0H5.913C4.2132 0 2.58302 0.679552 1.38109 1.88916C0.179148 3.09877 -0.496094 4.73935 -0.496094 6.45L-0.496094 20.425ZM225.65 13.0118C231.622 13.0118 234.504 17.2097 234.504 22.0719V31.204H228.254V23.1555C228.254 20.9517 227.455 19.1328 225.164 19.1328C222.872 19.1328 222.109 20.9517 222.109 23.1555V31.2029H215.859V23.1555C215.859 20.9517 215.095 19.1328 212.803 19.1328C210.511 19.1328 209.712 20.9517 209.712 23.1555V31.2029H203.464V22.0708C203.464 17.2086 206.345 13.0107 212.317 13.0107C215.581 13.0107 217.942 14.305 219.018 16.4389C220.164 14.305 222.664 13.0096 225.65 13.0096V13.0118ZM192.233 25.6065C194.246 25.6065 195.115 23.7521 195.115 21.5473V13.7105H201.364V22.317C201.364 27.4598 198.378 31.7286 192.233 31.7286C186.086 31.7286 183.101 27.4609 183.101 22.317V13.7105H189.351V21.5473C189.351 23.751 190.218 25.6065 192.233 25.6065ZM173.911 31.763C169.988 31.763 167.453 30.3988 165.96 27.7404L170.474 25.1862C171.099 26.3052 172.036 26.8653 173.598 26.8653C174.883 26.8653 175.473 26.4106 175.473 25.8505C175.473 23.7166 166.307 25.886 166.307 19.0995C166.307 15.81 169.084 13.1515 173.807 13.1515C177.938 13.1515 180.195 15.1801 181.203 17.1398L176.689 19.7284C176.307 18.6792 175.126 18.0492 173.945 18.0492C173.043 18.0492 172.557 18.4341 172.557 18.9587C172.557 21.128 181.723 19.1339 181.723 25.7108C181.723 29.384 178.147 31.763 173.911 31.763ZM152.076 39.2504H145.826V22.4223C145.826 17.0688 149.818 13.1859 155.374 13.1859C160.791 13.1859 164.923 17.3494 164.923 22.4223C164.923 28.0199 161.242 31.7286 155.721 31.7286C154.436 31.7286 153.152 31.3438 152.076 30.7482V39.2504ZM155.374 25.8161C157.353 25.8161 158.673 24.2767 158.673 22.4567C158.673 20.6034 157.353 19.0984 155.374 19.0984C153.395 19.0984 152.076 20.6034 152.076 22.4578C152.076 24.2767 153.395 25.8161 155.374 25.8161ZM139.565 11.8572C137.516 11.8572 135.816 10.1426 135.816 8.07862C135.816 6.01462 137.516 4.3 139.565 4.3C141.614 4.3 143.315 6.01462 143.315 8.07862C143.315 10.1426 141.614 11.8572 139.565 11.8572ZM136.441 13.7105H142.69V31.204H136.441V13.7105ZM124.449 31.7286C119.032 31.7286 114.901 27.5307 114.901 22.4223C114.901 17.3494 119.032 13.1515 124.449 13.1515C129.866 13.1515 133.998 17.3494 133.998 22.4223C133.998 27.5307 129.866 31.7286 124.449 31.7286ZM124.449 25.8161C126.428 25.8161 127.748 24.2767 127.748 22.4567C127.748 20.6034 126.428 19.064 124.449 19.064C122.47 19.064 121.151 20.6034 121.151 22.4567C121.151 24.2767 122.47 25.8161 124.449 25.8161ZM103.099 39.775C98.7946 39.775 95.6691 37.8507 94.0722 34.4215L99.2454 31.6233C99.8008 32.8133 100.842 34.0377 102.995 34.0377C105.253 34.0377 106.745 32.6026 106.919 30.0839C106.086 30.8192 104.766 31.3782 102.787 31.3782C97.9604 31.3782 94.0711 27.635 94.0711 22.3869C94.0711 17.315 98.2039 13.1859 103.621 13.1859C109.176 13.1859 113.169 17.0699 113.169 22.4223V29.3496C113.169 35.647 108.828 39.775 103.099 39.775ZM103.516 25.4667C105.391 25.4667 106.815 24.1714 106.815 22.2471C106.815 20.3583 105.392 19.0984 103.516 19.0984C101.675 19.0984 100.217 20.3583 100.217 22.2482C100.217 24.1724 101.675 25.4667 103.516 25.4667ZM83.4705 31.7286C78.0537 31.7286 73.9209 27.5307 73.9209 22.4223C73.9209 17.3494 78.0537 13.1515 83.4705 13.1515C88.8862 13.1515 93.0189 17.3494 93.0189 22.4223C93.0189 27.5307 88.8872 31.7286 83.4705 31.7286ZM83.4705 25.8161C85.4498 25.8161 86.769 24.2767 86.769 22.4567C86.769 20.6034 85.4498 19.064 83.4705 19.064C81.4911 19.064 80.1719 20.6034 80.1719 22.4567C80.1719 24.2767 81.4911 25.8161 83.4705 25.8161ZM62.5405 7.5895V25.256H72.888V31.204H61.6721C57.7145 31.204 56.1175 29.1045 56.1175 25.7806V7.5895H62.5405Z" fill="#1E252E"/>
</g>
<defs>
<clipPath id="clip0_1192_19686">
<rect width="235" height="43" fill="white"/>
</clipPath>
</defs>
</svg>
